PathFileType	4	(X/Y/Z)	C:/Users/beibeiliu/ov580/test_trc/User3\sequence.13_training_dense_right.trc
DataRate	CameraRate	NumFrames	NumMarkers	Units	OrigDataRate	OrigDataStartFrame	OrigNumFrames
120	120	22	19	mm	120	35	278
Frame#	Time	ThumbCMC			ThumbMCP			ThumbIP			ThumbTip			IndexMCP			IndexPIP			IndexTip			MiddleMCP			MiddlePIP			MiddleTip			RingMCP			RingPIP			RingTip			PinkyMCP			PinkyPIP			PinkyTip			BackHand1			BackHand2			BackHand3	
		X0	Y0	Z0	X1	Y1	Z1	X2	Y2	Z2	X3	Y3	Z3	X4	Y4	Z4	X5	Y5	Z5	X6	Y6	Z6	X7	Y7	Z7	X8	Y8	Z8	X9	Y9	Z9	X10	Y10	Z10	X11	Y11	Z11	X12	Y12	Z12	X13	Y13	Z13	X14	Y14	Z14	X15	Y15	Z15	X16	Y16	Z16	X17	Y17	Z17	X18	Y18	Z18	
34	0.283333	124.142	-1.59975	32.1173	96.1934	-14.3901	12.8188	86.795	-30.7595	-5.62937	87.0758	-53.0037	-26.8921	131.653	-2.36881	-42.8742	124.513	-1.24651	-71.5795	124.366	-6.203	-90.9658	122.961	-30.2476	-45.5806	102.223	-51.5222	-36.472	112.769	-43.3371	2.94866	134.112	-47.522	-33.6374	117.286	-64.9548	-17.9874	123.709	-47.8826	13.8809	148.235	-59.5729	-25.1992	129.1	-70.999	-9.14854	132.447	-54.3649	15.6438	176.291	-18.7058	-1.52117	184.975	-13.788	27.2805	155.582	7.77684	14.1953	
35	0.291667	128.838	5.15351	32.5885	97.5339	-6.04098	10.4176	80.6189	-21.2019	-6.78399	84.5917	-44.415	-20.9392	132.032	1.2614	-48.7478	128.208	-5.61047	-69.4192	124.182	-6.66316	-93.1585	120.638	-31.8101	-46.3967	95.9908	-47.3816	-32.7511	108.357	-40.2521	3.74501	130.986	-49.4834	-31.2799	106.496	-57.5987	-11.3703	121.678	-43.0293	16.9749	137.851	-60.7899	-23.6452	119.971	-66.103	-8.15268	127.813	-50.1023	18.048	175.037	-19.3091	-4.68234	187.05	-17.435	26.8861	162.914	5.96519	11.0761	
36	0.3	132.608	10.7898	25.2966	102.38	3.01086	12.1178	80.6201	-13.0909	-10.3822	78.5438	-36.5679	-19.2709	137.277	-3.63155	-49.5886	129.768	-4.25037	-73.346	126.004	-12.745	-94.4001	117.515	-27.7932	-45.7917	92.0039	-39.543	-32.6735	102.794	-27.6491	6.18133	124.337	-46.7141	-29.2877	100.895	-50.5024	-7.10715	116.399	-34.3724	16.9735	133.657	-62.003	-18.4074	109.682	-59.5025	1.83758	118.964	-44.1389	20.226	172.576	-26.4369	-4.68422	185.048	-21.7205	20.4097	167.739	4.63492	10.3265	
37	0.308333	139.731	14.5271	26.4852	105.217	12.848	10.8555	80.5565	-2.42688	-9.72224	75.5324	-27.3891	-16.8344	138.016	-3.65814	-49.5769	131.716	-8.19209	-73.4133	124.61	-9.44036	-98.4026	116.542	-27.2945	-45.2742	88.254	-32.7478	-30.5558	101.763	-22.2011	5.87941	118.996	-44.2507	-28.1309	94.9676	-40.8187	-4.75832	110.78	-25.8386	17.181	122.648	-59.8696	-14.8387	102.971	-50.4727	4.42185	118.687	-33.1168	22.4287	172.779	-31.9967	-4.43195	185.567	-30.359	19.957	169.693	0.943576	2.87775	
38	0.316667	146.676	19.0928	23.785	112.008	20.2203	8.64171	85.2689	8.41673	-9.3452	74.6292	-13.7897	-13.0711	138.795	-5.31069	-54.36	131.053	-6.81117	-77.4568	122.229	-12.8421	-99.7936	115.753	-26.2604	-43.3757	85.7254	-19.8082	-31.6476	100.778	-8.50718	5.97355	110.782	-37.3838	-26.8475	90.3383	-33.7342	-6.7593	108.965	-17.0599	17.3088	117.496	-54.0732	-12.7087	97.5433	-44.9661	3.88237	113.684	-27.7088	21.8671	167.735	-35.3122	-3.11251	182.204	-31.6954	20.0994	174.642	-3.16048	1.53527	
39	0.325	152.03	24.3096	20.7763	116.635	23.5819	3.47625	91.7926	13.3808	-9.32146	77.5871	-5.33236	-10.8996	141.628	-2.39216	-50.4195	133.046	-5.42762	-75.6234	123.115	-10.9758	-98.9911	113.768	-19.0837	-45.9151	84.8109	-11.7389	-29.8742	102.872	-3.12873	4.47519	106.756	-34.9083	-25.2657	88.4624	-21.9758	-5.90788	110.845	-9.66205	16.9182	111.984	-46.0693	-12.6349	93.6293	-32.9358	5.90686	115.649	-20.5596	23.7507	164.273	-40.5457	-2.67814	180.166	-37.5941	24.8098	177.044	-5.13615	0.0972119	
40	0.333333	157.843	23.4117	15.736	124.284	28.4937	3.9536	96.2531	22.6944	-8.85035	81.9352	0.44862	-11.5441	144.154	-4.11516	-52.6087	132.317	-9.68032	-75.1892	120.418	-14.7501	-100.217	114.824	-20.5579	-43.9342	87.8617	-5.20896	-35.4559	103.541	5.19854	1.65433	108.814	-32.0539	-23.1791	88.3674	-14.4431	-7.10954	108.906	-5.76356	17.655	106.231	-44.3925	-8.62976	91.8199	-25.471	7.88691	113.893	-15.96	25.4666	161.612	-39.4835	-2.82788	179.15	-39.9253	23.4334	176.979	-10.7955	1.85698	
41	0.341667	164.739	21.3241	15.4188	133.027	35.0952	3.64193	103.814	27.5597	-10.2087	83.943	8.08112	-11.0565	145.797	-4.14856	-53.8295	132.601	-8.91103	-76.4636	121.859	-11.1337	-97.1322	113.195	-14.4002	-45.8948	88.2293	0.502875	-33.3503	106.743	9.76627	1.42465	104.344	-24.7572	-23.6908	88.4766	-5.91347	-9.65987	113.636	0.898802	17.1224	105.12	-39.1157	-6.60844	93.0525	-13.8719	5.99186	112.477	-9.53931	24.9779	160.431	-42.1923	-0.159191	173.376	-40.8884	23.1764	180.441	-10.9637	0.726955	
42	0.35	170.644	18.3546	13.2351	142.539	35.897	2.28206	111.269	36.4171	-12.1856	88.2983	19.1028	-12.7641	143.104	-8.54438	-54.5067	132.149	-9.73296	-73.9019	119.274	-11.4972	-95.2905	112.075	-13.1571	-44.0167	90.4745	5.82587	-35.7007	109.093	18.1375	-0.654291	107.499	-17.5535	-24.0127	90.6277	2.61595	-7.70046	112.525	10.7466	14.1013	102.014	-33.3355	-5.76412	89.2521	-10.3212	5.2871	113.71	-1.66169	24.6029	157.463	-42.5623	0.543539	170.801	-44.3627	23.609	179.178	-15.3954	-2.33943	
43	0.358333	177.917	18.3954	11.6151	150.844	35.2638	0.061056	122.995	41.648	-12.2748	99.7155	31.2238	-13.2846	146.011	-8.47463	-50.5194	132.857	-8.15643	-79.3905	120.81	-9.29263	-96.2739	118.239	-9.56604	-42.0609	96.4223	16.5348	-36.771	114.025	25.1525	-3.4341	108.498	-15.7052	-24.4776	94.6114	10.1547	-7.92437	115.389	11.6975	15.7186	100.099	-27.7957	-7.45093	92.631	-2.64051	1.92317	114.325	2.71637	22.3172	155.779	-42.5267	0.589447	170.332	-46.501	22.6978	180.239	-21.6031	1.39757	
44	0.366667	178.088	13.5907	10.1159	157.828	35.0661	-1.11588	130.716	43.9375	-13.7887	104.832	37.4192	-16.7587	147.645	-8.25056	-56.7343	136.646	-6.51703	-77.1166	118.936	-10.4203	-96.463	118.68	-4.70376	-44.4539	98.7948	18.6974	-33.8767	120.148	25.9538	-1.64016	107.146	-10.7994	-25.7391	97.2038	13.8329	-9.65528	118.598	14.2937	13.5094	105.418	-22.8425	-9.69148	94.5081	0.566901	1.7878	117.041	6.76059	17.2	153.335	-44.0714	-3.80093	170.577	-46.8623	26.0269	183.353	-21.8649	-0.0472078	
45	0.375	181.705	12.1581	9.96074	160.336	35.1666	-5.5408	134.663	46.0567	-19.6866	107.015	40.7633	-23.2512	150.247	-9.67486	-52.5162	138.502	-5.78357	-78.3648	121.647	-7.31823	-100.203	122.381	-4.12533	-45.6348	104.235	21.5753	-38.1313	123.66	25.2333	-1.61013	113.788	-12.3236	-26.6722	99.8089	14.2379	-12.0135	121.786	17.033	11.8823	102.668	-23.818	-11.1355	95.596	-0.670121	-4.6708	115.167	7.46046	20.2312	156.201	-42.2138	-2.29162	170.431	-51.0593	26.3455	184.984	-22.1024	-4.00967	
46	0.383333	185.31	12.9431	8.29132	163.736	32.4931	-6.6029	135.63	44.3942	-23.2198	114.022	39.6574	-24.1824	153.469	-7.90144	-56.4811	138.428	-8.42132	-78.5056	121.31	-8.45904	-101.453	123.622	-5.68913	-45.2856	106.889	22.2472	-36.5391	126.542	23.658	-2.70962	115.258	-13.0063	-28.7009	102.009	14.0203	-14.1045	124.713	15.7094	9.90049	102.296	-24.9414	-13.0785	96.1069	1.4984	-1.65025	116.973	8.34196	14.1325	151.025	-45.6776	-3.584	168.215	-51.8497	21.8304	183.467	-26.866	-2.51204	
47	0.391667	186.083	7.10779	10.6168	165.759	32.8496	-9.28961	140.347	42.9202	-24.1591	114.649	33.7684	-27.1262	155.873	-9.65891	-57.0236	138.619	-11.8363	-80.433	127.544	-7.29109	-102.053	121.77	-8.1137	-46.0842	108.093	20.9716	-34.3465	132.114	21.4542	-2.34265	115.235	-15.9948	-29.1473	101.818	10.3101	-12.3126	124.826	12.644	8.4944	105.794	-26.2333	-14.3941	99.2607	-0.994772	-8.1099	117.423	7.6243	12.8277	154.808	-49.8072	-2.41132	172.912	-52.3362	23.7092	187.043	-28.6175	-0.460334	
48	0.4	187.6	7.50193	8.29652	167.58	31.166	-9.61239	139.151	38.4796	-26.6611	116.651	34.0418	-28.7765	153.025	-15.0781	-61.9897	144.786	-10.7621	-81.9027	127.146	-10.5344	-100.622	123.054	-10.6058	-47.3899	110.105	17.4982	-38.0049	132.572	18.0592	-4.07484	116.845	-16.7889	-32.597	102.561	6.39538	-18.3274	128.581	6.51271	9.52244	108.253	-30.4613	-14.785	96.2228	-5.61763	-6.04889	117.654	3.37346	11.6539	156.731	-51.1656	-1.41071	171.242	-55.8989	21.5236	187.808	-30.7006	-2.45581	
49	0.408333	186.053	4.03343	6.41354	164.576	26.6839	-14.3126	141.455	36.8865	-26.4354	115.148	28.7695	-30.8847	154.948	-16.5726	-59.1108	140.093	-13.6186	-85.6516	124.92	-10.6586	-105.342	130.293	-13.1598	-48.9096	109.176	13.5632	-35.7459	131.642	14.8634	-6.40303	114.599	-20.6408	-31.9497	104.742	5.48572	-21.1551	128.414	6.55169	7.41528	112.256	-32.3848	-17.1437	98.0928	-8.52954	-8.07206	117.06	1.25665	10.4706	157.059	-52.9351	-4.1549	172.868	-53.8533	21.0834	189.004	-33.6768	-2.76738	
50	0.416667	187.473	6.27017	3.37522	165.873	28.4281	-13.4675	141.184	34.4541	-27.1005	113.503	26.2299	-33.0558	158.093	-18.0373	-63.2616	144.695	-14.3979	-86.3259	129.429	-11.2306	-104.449	128.201	-13.5169	-52.8323	113.44	11.6311	-43.6309	129.885	10.6322	-7.25227	116.093	-24.1206	-33.5015	104.288	1.32681	-22.9809	126.917	4.34786	5.99532	111.822	-33.1478	-18.429	102.319	-7.86871	-13.5837	118.07	-3.85	12.1065	159.134	-52.3782	-7.56048	174.259	-56.199	19.7619	188.814	-34.5841	-1.14684	
51	0.425	189.847	5.91473	5.90178	163.536	23.3866	-15.0974	138.992	29.943	-26.4462	112.94	21.5886	-31.4465	159.147	-21.2071	-60.4018	145.289	-16.5266	-83.0748	131.213	-9.60734	-106.183	133.081	-20.3287	-52.2665	114.235	7.38168	-49.1517	133.997	13.8709	-11.856	117.842	-27.6033	-33.9559	107.493	3.20607	-24.826	127.157	4.63137	3.18332	111.939	-33.5242	-20.3095	100.558	-11.784	-12.2042	123.897	-3.07792	10.5982	159.397	-54.5624	-6.81013	172.108	-58.9693	23.4756	191.549	-36.0764	-3.10751	
52	0.433333	188.461	4.55549	3.89701	161.196	24.6341	-13.7419	134.024	25.8815	-26.6647	110.189	19.5635	-30.149	157.565	-21.3456	-64.4117	146.451	-14.7124	-88.7158	125.928	-9.85847	-107.021	132.07	-23.7746	-56.773	115.848	3.87668	-56.1189	126.481	12.5939	-17.8749	119.897	-25.8893	-38.5002	106.909	-0.821565	-28.4529	126.555	5.26831	0.0863516	114.375	-35.4616	-21.0096	103.823	-10.2545	-15.4347	123.11	-2.88093	7.07762	159.564	-57.0243	-5.08447	176.608	-55.9629	24.1907	189.527	-36.6157	-2.30283	
53	0.441667	186.769	4.7575	4.91761	158.627	25.112	-13.0198	131.783	26.4827	-24.6637	104.525	12.9976	-30.1033	161.465	-20.9876	-62.4016	147.612	-16.8057	-84.7787	129.639	-9.37464	-103.501	139.423	-27.8795	-59.6573	113.152	-3.07561	-63.3944	116.641	13.5312	-30.0778	119.134	-28.9668	-39.8582	105.281	-4.76715	-31.4404	126.97	7.27775	-5.30788	114.18	-38.225	-20.7133	101.508	-14.2358	-14.7184	121.597	-2.18861	4.47938	162.949	-57.2944	-3.71117	177.022	-56.8571	22.5443	193.684	-35.4915	-4.49348	
54	0.45	184.073	2.79744	6.3826	156.912	20.2174	-10.2264	127.737	21.0979	-26.5715	106.223	12.4958	-29.0668	161.146	-21.9027	-66.333	148.82	-14.5243	-90.7929	133.849	-7.90975	-106.412	141.78	-32.908	-62.8031	116.132	-11.8175	-73.9273	107.65	14.3666	-52.0348	123.2	-28.8943	-42.1251	105.081	-8.14367	-33.0491	121.311	5.20904	-7.24427	114.368	-36.8961	-24.222	105.081	-12.7929	-16.096	124.223	-4.33159	8.69776	164.289	-54.7629	-7.29879	176.909	-57.2466	23.6018	193.514	-35.3064	-6.57061	
55	0.458333	182.348	2.44828	5.58395	153.529	17.6264	-12.9624	127.254	21.0464	-24.6458	103.417	6.65985	-29.15	164.965	-20.0676	-66.1236	151.292	-15.7538	-89.3977	137.819	-8.70578	-107.366	145.135	-36.9979	-62.376	122.249	-22.8071	-81.3047	97.527	6.02348	-71.7801	123.959	-34.3785	-39.7725	108.374	-5.16434	-35.3675	119.568	3.05267	-4.96978	117.42	-39.3884	-22.9092	103.604	-14.3706	-14.5471	122.306	-2.70682	4.87203	164.8	-57.2236	-6.9824	177.833	-55.9454	24.3149	195.044	-32.5234	-5.89159	
